{
  "accessors": [
    {
      "bufferView": 0,
      "componentType": 5125,
      "count": 66048,
      "type": "SCALAR"
    },
    {
      "bufferView": 1,
      "componentType": 5126,
      "count": 11538,
      "max": [
        3.77115416526794,
        14.4594135284424,
        3.42468905448914
      ],
      "min": [
        -3.77115321159363,
        6.91710901260376,
        -3.21130347251892
      ],
      "type": "VEC3"
    },
    {
      "bufferView": 2,
      "componentType": 5126,
      "count": 11538,
      "type": "VEC3"
    },
    {
      "bufferView": 3,
      "componentType": 5126,
      "count": 11538,
      "type": "VEC4"
    },
    {
      "bufferView": 4,
      "componentType": 5126,
      "count": 11538,
      "type": "VEC2"
    },
    {
      "bufferView": 5,
      "componentType": 5125,
      "count": 51888,
      "type": "SCALAR"
    },
    {
      "bufferView": 6,
      "componentType": 5126,
      "count": 9084,
      "max": [
        4.07797431945801,
        7.56785202026367,
        1.6224285364151
      ],
      "min": [
        -4.07797431945801,
        1.02932929992676,
        -1.6235716342926
      ],
      "type": "VEC3"
    },
    {
      "bufferView": 7,
      "componentType": 5126,
      "count": 9084,
      "type": "VEC3"
    },
    {
      "bufferView": 8,
      "componentType": 5126,
      "count": 9084,
      "type": "VEC4"
    },
    {
      "bufferView": 9,
      "componentType": 5126,
      "count": 9084,
      "type": "VEC2"
    },
    {
      "bufferView": 10,
      "componentType": 5125,
      "count": 51336,
      "type": "SCALAR"
    },
    {
      "bufferView": 11,
      "componentType": 5126,
      "count": 8950,
      "max": [
        4.12314653396606,
        1.03222751617432,
        4.74693202972412
      ],
      "min": [
        -4.12314748764038,
        4.76837158203125e-07,
        -4.74693202972412
      ],
      "type": "VEC3"
    },
    {
      "bufferView": 12,
      "componentType": 5126,
      "count": 8950,
      "type": "VEC3"
    },
    {
      "bufferView": 13,
      "componentType": 5126,
      "count": 8950,
      "type": "VEC4"
    },
    {
      "bufferView": 14,
      "componentType": 5126,
      "count": 8950,
      "type": "VEC2"
    }
  ],
  "asset": {
    "generator": "Adobe Substance 3D Painter 8.3.0",
    "version": "2.0"
  },
  "bufferViews": [
    {
      "buffer": 0,
      "byteLength": 264192,
      "target": 34963
    },
    {
      "buffer": 0,
      "byteLength": 138456,
      "byteOffset": 264192,
      "target": 34962
    },
    {
      "buffer": 0,
      "byteLength": 138456,
      "byteOffset": 402648,
      "target": 34962
    },
    {
      "buffer": 0,
      "byteLength": 184608,
      "byteOffset": 541104,
      "target": 34962
    },
    {
      "buffer": 0,
      "byteLength": 92304,
      "byteOffset": 725712,
      "target": 34962
    },
    {
      "buffer": 0,
      "byteLength": 207552,
      "byteOffset": 818016,
      "target": 34963
    },
    {
      "buffer": 0,
      "byteLength": 109008,
      "byteOffset": 1025568,
      "target": 34962
    },
    {
      "buffer": 0,
      "byteLength": 109008,
      "byteOffset": 1134576,
      "target": 34962
    },
    {
      "buffer": 0,
      "byteLength": 145344,
      "byteOffset": 1243584,
      "target": 34962
    },
    {
      "buffer": 0,
      "byteLength": 72672,
      "byteOffset": 1388928,
      "target": 34962
    },
    {
      "buffer": 0,
      "byteLength": 205344,
      "byteOffset": 1461600,
      "target": 34963
    },
    {
      "buffer": 0,
      "byteLength": 107400,
      "byteOffset": 1666944,
      "target": 34962
    },
    {
      "buffer": 0,
      "byteLength": 107400,
      "byteOffset": 1774344,
      "target": 34962
    },
    {
      "buffer": 0,
      "byteLength": 143200,
      "byteOffset": 1881744,
      "target": 34962
    },
    {
      "buffer": 0,
      "byteLength": 71600,
      "byteOffset": 2024944,
      "target": 34962
    }
  ],
  "buffers": [
    {
      "byteLength": 2096544,
      "uri": "meetMat.bin"
    }
  ],
  "images": [
    {
      "uri": "01_Head_baseColor.png"
    },
    {
      "uri": "01_Head_occlusionRoughnessMetallic.png"
    },
    {
      "uri": "01_Head_normal.png"
    },
    {
      "uri": "02_Body_baseColor.png"
    },
    {
      "uri": "02_Body_occlusionRoughnessMetallic.png"
    },
    {
      "uri": "02_Body_normal.png"
    },
    {
      "uri": "03_Base_baseColor.png"
    },
    {
      "uri": "03_Base_occlusionRoughnessMetallic.png"
    },
    {
      "uri": "03_Base_normal.png"
    }
  ],
  "materials": [
    {
      "alphaMode": "OPAQUE",
      "name": "01_Head",
      "normalTexture": {
        "index": 2
      },
      "occlusionTexture": {
        "index": 1
      },
      "pbrMetallicRoughness": {
        "baseColorTexture": {
          "index": 0
        },
        "metallicRoughnessTexture": {
          "index": 1
        }
      }
    },
    {
      "alphaMode": "OPAQUE",
      "name": "02_Body",
      "normalTexture": {
        "index": 5
      },
      "occlusionTexture": {
        "index": 4
      },
      "pbrMetallicRoughness": {
        "baseColorTexture": {
          "index": 3
        },
        "metallicRoughnessTexture": {
          "index": 4
        }
      }
    },
    {
      "alphaMode": "OPAQUE",
      "name": "03_Base",
      "normalTexture": {
        "index": 8
      },
      "occlusionTexture": {
        "index": 7
      },
      "pbrMetallicRoughness": {
        "baseColorTexture": {
          "index": 6
        },
        "metallicRoughnessTexture": {
          "index": 7
        }
      }
    }
  ],
  "meshes": [
    {
      "name": "Mesh_01_Head",
      "primitives": [
        {
          "attributes": {
            "NORMAL": 2,
            "POSITION": 1,
            "TANGENT": 3,
            "TEXCOORD_0": 4
          },
          "indices": 0,
          "material": 0,
          "mode": 4
        }
      ]
    },
    {
      "name": "Mesh_02_Body",
      "primitives": [
        {
          "attributes": {
            "NORMAL": 7,
            "POSITION": 6,
            "TANGENT": 8,
            "TEXCOORD_0": 9
          },
          "indices": 5,
          "material": 1,
          "mode": 4
        }
      ]
    },
    {
      "name": "Mesh_03_Base",
      "primitives": [
        {
          "attributes": {
            "NORMAL": 12,
            "POSITION": 11,
            "TANGENT": 13,
            "TEXCOORD_0": 14
          },
          "indices": 10,
          "material": 2,
          "mode": 4
        }
      ]
    }
  ],
  "nodes": [
    {
      "children": [
        1,
        3,
        5
      ],
      "name": "root"
    },
    {
      "children": [
        2
      ],
      "name": "Mesh_01_Head"
    },
    {
      "mesh": 0,
      "name": "Mesh_01_Head"
    },
    {
      "children": [
        4
      ],
      "name": "Mesh_02_Body"
    },
    {
      "mesh": 1,
      "name": "Mesh_02_Body"
    },
    {
      "children": [
        6
      ],
      "name": "Mesh_03_Base"
    },
    {
      "mesh": 2,
      "name": "Mesh_03_Base"
    }
  ],
  "samplers": [
    {
      "magFilter": 9729,
      "minFilter": 9985,
      "wrapS": 10497,
      "wrapT": 10497
    }
  ],
  "scene": 0,
  "scenes": [
    {
      "name": "Scene",
      "nodes": [
        0
      ]
    }
  ],
  "textures": [
    {
      "sampler": 0,
      "source": 0
    },
    {
      "sampler": 0,
      "source": 1
    },
    {
      "sampler": 0,
      "source": 2
    },
    {
      "sampler": 0,
      "source": 3
    },
    {
      "sampler": 0,
      "source": 4
    },
    {
      "sampler": 0,
      "source": 5
    },
    {
      "sampler": 0,
      "source": 6
    },
    {
      "sampler": 0,
      "source": 7
    },
    {
      "sampler": 0,
      "source": 8
    }
  ]
}